<svg width="49" height="52" viewBox="0 0 49 52" fill="none" xmlns="http://www.w3.org/2000/svg">
<path d="M48.1847 24C48.1847 37.2548 37.4395 51.5 24.1847 51.5C10.9299 51.5 0.184692 37.2548 0.184692 24C0.184692 10.7452 10.9299 0 24.1847 0C37.4395 0 48.1847 10.7452 48.1847 24Z" fill="#FF6000"/>
<path d="M31.9167 23.4167H25.5834V17.0833H22.4167V23.4167H16.0834V26.5833H22.4167V32.9167H25.5834V26.5833H31.9167V23.4167Z" fill="white"/>
<path fill-rule="evenodd" clip-rule="evenodd" d="M24 42.4167C14.3811 42.4167 6.58337 34.619 6.58337 25C6.58337 15.3811 14.3811 7.58334 24 7.58334C33.619 7.58334 41.4167 15.3811 41.4167 25C41.4167 34.619 33.619 42.4167 24 42.4167ZM24 39.25C31.8701 39.25 38.25 32.8701 38.25 25C38.25 17.13 31.8701 10.75 24 10.75C16.13 10.75 9.75004 17.13 9.75004 25C9.75004 32.8701 16.13 39.25 24 39.25Z" fill="white"/>
</svg>
